# xmcd
#
# Track frame offsets:
# 150
# 21753
# 39297
# 55337
# 71371
# 90293
# 105520
# 117462
# 128304
# 145871
# 159165
# 174195
# 184707
# 195709
# 207801
# 224828
# 241450
# 257212
# 268774
# 291226
#
# Disc length: 4108 seconds
#
#
# Revision: 0
# Processed by: cddbd v1.5.2PL0 Copyright (c) Steve Scherf et al.
# Submitted via: FreeRIP 2.95 
#
DISCID=1a100a14
DTITLE=Reginaldo Rossi - As 20 Mais
DYEAR=2007
DGENRE=Pop
TTITLE0=O Dia do Corno
TTITLE1=Leviana
TTITLE2=Amanhâ (part.Roberta Miranda
TTITLE3=Garçon
TTITLE4=Sai da Tua Vida
TTITLE5=Em Plena Lua de Mel
TTITLE6=Era Domingo
TTITLE7=Man Amour Meu Bem Ma Femme
TTITLE8=A Raposa e as Uvas
TTITLE9=Se meu Amor não Chegar
TTITLE10=As quatros Estaçôes
TTITLE11=Aquela Triste Canção
TTITLE12=Pedaço de Mau Caminho
TTITLE13=Meu Fracasso
TTITLE14=Eu não Consigo te Esquecer
TTITLE15=Vou começar tudo de novo
TTITLE16=Última Canção
TTITLE17=Porque você já não me Mata de uma vez
TTITLE18=Recife minha Cidade
TTITLE19=Férias em Itamaracá
EXTD=
EXTT0=
EXTT1=
EXTT2=
EXTT3=
EXTT4=
EXTT5=
EXTT6=
EXTT7=
EXTT8=
EXTT9=
EXTT10=
EXTT11=
EXTT12=
EXTT13=
EXTT14=
EXTT15=
EXTT16=
EXTT17=
EXTT18=
EXTT19=
PLAYORDER=
